<svg width="65" height="21" viewBox="0 0 65 21" fill="none" xmlns="http://www.w3.org/2000/svg">
<g clip-path="url(#clip0_8004_9301)">
<g clip-path="url(#clip1_8004_9301)">
<path d="M8.62149 2.11035H3.74649C3.43399 2.11035 3.12149 2.36035 3.05899 2.67285L1.12149 15.1729C1.05899 15.4229 1.24649 15.6104 1.49649 15.6104H3.80899C4.12149 15.6104 4.43399 15.3604 4.49649 15.0479L4.99649 11.6729C5.05899 11.3604 5.30899 11.1104 5.68399 11.1104H7.24649C10.434 11.1104 12.309 9.54785 12.809 6.48535C12.9965 5.17285 12.809 4.11035 12.184 3.36035C11.4965 2.54785 10.2465 2.11035 8.62149 2.11035ZM9.18399 6.67285C8.93399 8.42285 7.55899 8.42285 6.30899 8.42285H5.55899L6.05899 5.17285C6.05899 4.98535 6.24649 4.86035 6.43399 4.86035H6.74649C7.62149 4.86035 8.43399 4.86035 8.87149 5.36035C9.18399 5.61035 9.30899 6.04785 9.18399 6.67285Z" fill="#8B9FE8"/>
<path d="M23.1192 6.61035H20.8067C20.6192 6.61035 20.4317 6.73535 20.4317 6.92285L20.3067 7.54785L20.1192 7.29785C19.6192 6.54785 18.4942 6.29785 17.3692 6.29785C14.8067 6.29785 12.6192 8.23535 12.1817 10.9854C11.9317 12.3604 12.2442 13.6729 13.0567 14.5479C13.7442 15.3604 14.8067 15.7354 15.9942 15.7354C18.0567 15.7354 19.2442 14.4229 19.2442 14.4229L19.1192 15.0479C19.0567 15.2979 19.2442 15.5479 19.4942 15.5479H21.6192C21.9317 15.5479 22.2442 15.2979 22.3067 14.9854L23.5567 6.98535C23.6192 6.86035 23.3692 6.61035 23.1192 6.61035ZM19.9317 11.1104C19.6817 12.4229 18.6817 13.3604 17.3067 13.3604C16.6192 13.3604 16.1192 13.1729 15.7442 12.7354C15.3692 12.2979 15.2442 11.7354 15.3692 11.1104C15.5567 9.79785 16.6817 8.86035 17.9942 8.86035C18.6817 8.86035 19.1817 9.11035 19.5567 9.48535C19.8692 9.92285 19.9942 10.4854 19.9317 11.1104Z" fill="#8B9FE8"/>
<path d="M35.5567 6.61035H33.2442C32.9942 6.61035 32.8067 6.73535 32.6817 6.92285L29.4317 11.6729L28.0567 7.11035C27.9942 6.79785 27.6817 6.61035 27.4317 6.61035H25.1192C24.8692 6.61035 24.6192 6.86035 24.7442 7.17285L27.3067 14.7354L24.8692 18.1104C24.6817 18.3604 24.8692 18.7354 25.1817 18.7354H27.4942C27.7442 18.7354 27.9317 18.6104 28.0567 18.4229L35.8692 7.17285C36.0567 6.98535 35.8692 6.61035 35.5567 6.61035Z" fill="#8B9FE8"/>
<path d="M43.309 2.11035H38.434C38.1215 2.11035 37.809 2.36035 37.7465 2.67285L35.809 15.1104C35.7465 15.3604 35.934 15.5479 36.184 15.5479H38.684C38.934 15.5479 39.1215 15.3604 39.1215 15.1729L39.684 11.6104C39.7465 11.2979 39.9965 11.0479 40.3715 11.0479H41.934C45.1215 11.0479 46.9965 9.48535 47.4965 6.42285C47.684 5.11035 47.4965 4.04785 46.8715 3.29785C46.1215 2.54785 44.934 2.11035 43.309 2.11035ZM43.8715 6.67285C43.6215 8.42285 42.2465 8.42285 40.9965 8.42285H40.2465L40.7465 5.17285C40.7465 4.98535 40.934 4.86035 41.1215 4.86035H41.434C42.309 4.86035 43.1215 4.86035 43.559 5.36035C43.8715 5.61035 43.934 6.04785 43.8715 6.67285Z" fill="#009CDE"/>
<path d="M57.8067 6.61035H55.4942C55.3067 6.61035 55.1192 6.73535 55.1192 6.92285L54.9942 7.54785L54.8067 7.29785C54.3067 6.54785 53.1817 6.29785 52.0567 6.29785C49.4942 6.29785 47.3067 8.23535 46.8692 10.9854C46.6192 12.3604 46.9317 13.6729 47.7442 14.5479C48.4317 15.3604 49.4942 15.7354 50.6817 15.7354C52.7442 15.7354 53.9317 14.4229 53.9317 14.4229L53.8067 15.0479C53.7442 15.2979 53.9317 15.5479 54.1817 15.5479H56.3067C56.6192 15.5479 56.9317 15.2979 56.9942 14.9854L58.2442 6.98535C58.2442 6.86035 58.0567 6.61035 57.8067 6.61035ZM54.5567 11.1104C54.3067 12.4229 53.3067 13.3604 51.9317 13.3604C51.2442 13.3604 50.7442 13.1729 50.3692 12.7354C49.9942 12.2979 49.8692 11.7354 49.9942 11.1104C50.1817 9.79785 51.3067 8.86035 52.6192 8.86035C53.3067 8.86035 53.8067 9.11035 54.1817 9.48535C54.5567 9.92285 54.6817 10.4854 54.5567 11.1104Z" fill="#009CDE"/>
<path d="M60.559 2.42285L58.559 15.1104C58.4965 15.3604 58.684 15.5479 58.934 15.5479H60.934C61.2465 15.5479 61.559 15.2979 61.6215 14.9854L63.6215 2.54785C63.684 2.29785 63.4965 2.11035 63.2465 2.11035H60.9965C60.7465 2.11035 60.6215 2.23535 60.559 2.42285Z" fill="#009CDE"/>
</g>
</g>
<defs>
<clipPath id="clip0_8004_9301">
<rect width="63.13" height="20" fill="white" transform="translate(0.96875 0.360352)"/>
</clipPath>
<clipPath id="clip1_8004_9301">
<rect width="63.13" height="20" fill="white" transform="translate(0.96875 0.360352)"/>
</clipPath>
</defs>
</svg>
