<svg width="33" height="33" viewBox="0 0 33 33" fill="none" xmlns="http://www.w3.org/2000/svg">
<g clip-path="url(#clip0_8004_9323)">
<g clip-path="url(#clip1_8004_9323)">
<path d="M30.694 15.5269C29.944 15.5269 29.3606 16.1102 29.3606 16.8602C29.3465 19.9467 28.2621 22.9327 26.2922 25.3088C24.3224 27.685 21.5892 29.3042 18.5588 29.8901C15.5285 30.4761 12.3887 29.9926 9.67498 28.5221C6.9613 27.0516 4.84184 24.6852 3.67811 21.8265C2.51439 18.9678 2.3785 15.7939 3.2936 12.8461C4.20871 9.89842 6.11814 7.35949 8.69619 5.6624C11.2742 3.96532 14.3612 3.21521 17.4306 3.54002C20.4999 3.86483 23.3615 5.24445 25.5273 7.44354C25.6326 7.6155 25.7755 7.76133 25.9452 7.87009C26.115 7.97884 26.3072 8.04768 26.5074 8.07142C26.7077 8.09516 26.9106 8.07318 27.1011 8.00714C27.2916 7.94111 27.4647 7.83273 27.6072 7.69017C27.7498 7.5476 27.8582 7.37456 27.9242 7.18407C27.9903 6.99357 28.0122 6.79058 27.9885 6.59036C27.9648 6.39015 27.8959 6.19792 27.7872 6.02815C27.6784 5.85838 27.5326 5.71548 27.3606 5.61021C24.7455 2.98602 21.3007 1.35066 17.6142 0.983212C13.9277 0.615769 10.228 1.53902 7.14633 3.5954C4.06467 5.65178 1.79213 8.71385 0.716525 12.259C-0.359082 15.8042 -0.17109 19.6128 1.24842 23.0348C2.66793 26.4569 5.23097 29.2802 8.50016 31.0232C11.7693 32.7661 15.5421 33.3205 19.1744 32.5918C22.8068 31.8631 26.0738 29.8964 28.4178 27.0274C30.7618 24.1585 32.0375 20.565 32.0273 16.8602C32.0273 16.1102 31.444 15.5269 30.694 15.5269Z" fill="#8B9FE8"/>
<path d="M21.3594 15.5267H17.3594V11.5267C17.3594 11.1731 17.2189 10.8339 16.9689 10.5839C16.7188 10.3338 16.3797 10.1934 16.026 10.1934C15.6724 10.1934 15.3333 10.3338 15.0832 10.5839C14.8332 10.8339 14.6927 11.1731 14.6927 11.5267V15.5267H10.6927C10.3391 15.5267 9.99995 15.6672 9.7499 15.9172C9.49985 16.1673 9.35938 16.5064 9.35938 16.86C9.35938 17.2136 9.49985 17.5528 9.7499 17.8028C9.99995 18.0529 10.3391 18.1934 10.6927 18.1934H14.6927V22.1934C14.6927 22.547 14.8332 22.8861 15.0832 23.1362C15.3333 23.3862 15.6724 23.5267 16.026 23.5267C16.3797 23.5267 16.7188 23.3862 16.9689 23.1362C17.2189 22.8861 17.3594 22.547 17.3594 22.1934V18.1934H21.3594C21.713 18.1934 22.0521 18.0529 22.3022 17.8028C22.5522 17.5528 22.6927 17.2136 22.6927 16.86C22.6927 16.5064 22.5522 16.1673 22.3022 15.9172C22.0521 15.6672 21.713 15.5267 21.3594 15.5267Z" fill="#8B9FE8"/>
</g>
</g>
<defs>
<clipPath id="clip0_8004_9323">
<rect width="32" height="32" fill="white" transform="translate(0.0273438 0.860352)"/>
</clipPath>
<clipPath id="clip1_8004_9323">
<rect width="32" height="32" fill="white" transform="translate(0.0273438 0.860352)"/>
</clipPath>
</defs>
</svg>
