<svg width="16" height="16" viewBox="0 0 16 16" fill="none" xmlns="http://www.w3.org/2000/svg">
<path d="M12.6641 7.33341H8.66406V3.33341C8.66406 3.1566 8.59382 2.98703 8.4688 2.86201C8.34378 2.73699 8.17421 2.66675 7.9974 2.66675C7.82058 2.66675 7.65102 2.73699 7.52599 2.86201C7.40097 2.98703 7.33073 3.1566 7.33073 3.33341V7.33341H3.33073C3.15392 7.33341 2.98435 7.40365 2.85932 7.52868C2.7343 7.6537 2.66406 7.82327 2.66406 8.00008C2.66406 8.17689 2.7343 8.34646 2.85932 8.47149C2.98435 8.59651 3.15392 8.66675 3.33073 8.66675H7.33073V12.6667C7.33073 12.8436 7.40097 13.0131 7.52599 13.1382C7.65102 13.2632 7.82058 13.3334 7.9974 13.3334C8.17421 13.3334 8.34378 13.2632 8.4688 13.1382C8.59382 13.0131 8.66406 12.8436 8.66406 12.6667V8.66675H12.6641C12.8409 8.66675 13.0104 8.59651 13.1355 8.47149C13.2605 8.34646 13.3307 8.17689 13.3307 8.00008C13.3307 7.82327 13.2605 7.6537 13.1355 7.52868C13.0104 7.40365 12.8409 7.33341 12.6641 7.33341Z" fill="#222930"/>
</svg>
