<svg width="33" height="33" viewBox="0 0 33 33" fill="none" xmlns="http://www.w3.org/2000/svg">
<g clip-path="url(#clip0_8004_9319)">
<g clip-path="url(#clip1_8004_9319)">
<path d="M29.7148 5.36035C28.2148 3.86035 26.1523 3.17285 23.4648 3.17285C21.9064 3.21188 20.3904 3.68835 19.0898 4.54785C18.0012 5.27136 16.9767 6.08685 16.0273 6.98535C14.5319 5.52086 12.7714 4.35428 10.8398 3.54785C10.0273 3.29785 9.27734 3.17285 8.52734 3.17285C5.90234 3.17285 3.77734 3.86035 2.27734 5.36035C0.777344 6.86035 0.0273438 8.86035 0.0273438 11.4854C0.165676 13.8324 1.06528 16.0705 2.58984 17.8604C3.05688 18.4315 3.55778 18.9742 4.08984 19.4854L15.2148 30.2354C15.4648 30.4229 15.7148 30.5479 16.0273 30.5479C16.3398 30.5479 16.5898 30.4229 16.7773 30.2354L27.9023 19.5479C30.6523 16.7979 32.0273 14.1104 32.0273 11.4854C32.0273 8.86035 31.2773 6.86035 29.7148 5.36035ZM26.3398 17.8604L16.0273 27.7979L5.65234 17.8604C3.40234 15.6104 2.33984 13.4854 2.33984 11.4854C2.33984 10.5479 2.46484 9.67285 2.71484 8.92285C2.96484 8.23535 3.27734 7.61035 3.65234 7.17285C4.52269 6.3512 5.60487 5.78847 6.77734 5.54785L8.52734 5.42285C9.15234 5.42285 9.83984 5.61035 10.5273 5.86035C11.2773 6.17285 11.9023 6.54785 12.5273 7.04785C13.468 7.76377 14.3462 8.55829 15.1523 9.42285C15.3398 9.67285 15.6523 9.79785 16.0273 9.79785C16.4023 9.79785 16.6523 9.67285 16.9023 9.42285C17.6719 8.52187 18.5541 7.72365 19.5273 7.04785C20.6174 6.07506 22.006 5.50201 23.4648 5.42285L25.2148 5.54785L26.9023 6.11035C27.4648 6.42285 27.9648 6.73535 28.3398 7.17285C28.7773 7.61035 29.0898 8.23535 29.3398 8.92285C29.5898 9.67285 29.7148 10.5479 29.7148 11.4854C29.7148 13.4854 28.5898 15.6104 26.3398 17.8604Z" fill="#8B9FE8"/>
</g>
</g>
<defs>
<clipPath id="clip0_8004_9319">
<rect width="32" height="32" fill="white" transform="translate(0.0273438 0.860352)"/>
</clipPath>
<clipPath id="clip1_8004_9319">
<rect width="32" height="32" fill="white" transform="translate(0.0273438 0.860352)"/>
</clipPath>
</defs>
</svg>
