<svg width="23" height="23" viewBox="0 0 23 23" fill="none" xmlns="http://www.w3.org/2000/svg">
<g clip-path="url(#clip0_8003_32473)">
<g clip-path="url(#clip1_8003_32473)">
<path d="M16.2352 9.65415L7.34067 0.716649C7.26167 0.634829 7.16733 0.569371 7.06304 0.52401C6.95874 0.47865 6.84653 0.454277 6.73282 0.452282C6.50316 0.448253 6.28131 0.53562 6.11606 0.695165C6.03424 0.774163 5.96878 0.868503 5.92342 0.972799C5.87806 1.0771 5.85369 1.1893 5.8517 1.30302C5.84767 1.53268 5.93503 1.75453 6.09458 1.91977L15.0321 10.8573C15.3329 11.201 15.3329 11.7166 15.0321 12.0604L6.09458 20.9979C6.01558 21.0797 5.95347 21.1763 5.9118 21.2821C5.87012 21.3879 5.8497 21.5009 5.8517 21.6147C5.85369 21.7284 5.87806 21.8406 5.92342 21.9449C5.96878 22.0492 6.03424 22.1435 6.11606 22.2225C6.19788 22.3015 6.29446 22.3636 6.40028 22.4053C6.50611 22.447 6.6191 22.4674 6.73282 22.4654C6.84653 22.4634 6.95874 22.439 7.06304 22.3937C7.16733 22.3483 7.26167 22.2828 7.34067 22.201L16.2352 13.2635C17.2235 12.2752 17.2235 10.6424 16.2352 9.65415Z" fill="#8B9FE8"/>
</g>
</g>
<defs>
<clipPath id="clip0_8003_32473">
<rect width="22" height="22" fill="white" transform="translate(0.421875 0.458984)"/>
</clipPath>
<clipPath id="clip1_8003_32473">
<rect width="22" height="22" fill="white" transform="translate(0.421875 0.458984)"/>
</clipPath>
</defs>
</svg>
