<svg width="33" height="33" viewBox="0 0 33 33" fill="none" xmlns="http://www.w3.org/2000/svg">
<g clip-path="url(#clip0_8004_9328)">
<g clip-path="url(#clip1_8004_9328)">
<path d="M29.2148 24.6729C29.2077 24.4944 29.1623 24.3195 29.0819 24.1601C29.0014 24.0006 28.8877 23.8602 28.7484 23.7484C28.6091 23.6366 28.4475 23.5559 28.2744 23.5118C28.1014 23.4677 27.9208 23.4612 27.745 23.4928C27.5692 23.5243 27.4022 23.5932 27.2553 23.6947C27.1083 23.7963 26.9848 23.9281 26.8932 24.0814C26.8015 24.2347 26.7437 24.4058 26.7237 24.5833C26.7037 24.7608 26.722 24.9405 26.7773 25.1104C26.8398 25.6104 26.6523 25.9854 26.4648 26.1729C26.3398 26.2979 26.0273 26.6104 25.5273 26.6104H6.52734C6.02734 26.6104 5.71484 26.2979 5.58984 26.1729C5.46484 25.9854 5.21484 25.6104 5.33984 25.1104C5.65234 23.2354 6.40234 21.9854 7.08984 20.7979C7.90234 19.2979 8.77734 17.7979 8.77734 15.4854V13.6104C8.77734 9.67285 11.9648 6.42285 15.9023 6.36035H16.1523C20.0898 6.42285 23.2773 9.67285 23.2773 13.6104V15.4854C23.2773 17.4854 23.9023 18.8604 24.5273 19.9854C24.6931 20.2754 24.9673 20.4878 25.2896 20.5757C25.612 20.6636 25.956 20.6199 26.2461 20.4541C26.5362 20.2883 26.7485 20.0141 26.8364 19.6918C26.9243 19.3695 26.8806 19.0254 26.7148 18.7354C26.1523 17.6729 25.7773 16.7354 25.7773 15.4854V13.6104C25.7953 11.2342 24.9392 8.93427 23.372 7.14809C21.8047 5.36192 19.6357 4.21407 17.2773 3.92285V2.11035C17.2773 1.77883 17.1456 1.46089 16.9112 1.22647C16.6768 0.992048 16.3589 0.860352 16.0273 0.860352C15.6958 0.860352 15.3779 0.992048 15.1435 1.22647C14.909 1.46089 14.7773 1.77883 14.7773 2.11035V3.92285C10.0273 4.54785 6.27734 8.67285 6.27734 13.6104V15.4854C6.27734 17.1729 5.65234 18.2354 4.90234 19.5479C4.15234 20.8604 3.27734 22.3604 2.83984 24.6729C2.73887 25.2143 2.7584 25.7714 2.89706 26.3044C3.03572 26.8375 3.29011 27.3334 3.64213 27.757C3.99415 28.1807 4.43516 28.5215 4.93383 28.7554C5.43249 28.9893 5.97655 29.1105 6.52734 29.1104H12.2773C12.2773 30.1049 12.6724 31.0587 13.3757 31.762C14.079 32.4653 15.0328 32.8604 16.0273 32.8604C17.0219 32.8604 17.9757 32.4653 18.679 31.762C19.3823 31.0587 19.7773 30.1049 19.7773 29.1104H25.5273C26.0781 29.1105 26.6222 28.9893 27.1209 28.7554C27.6195 28.5215 28.0605 28.1807 28.4126 27.757C28.7646 27.3334 29.019 26.8375 29.1576 26.3044C29.2963 25.7714 29.3158 25.2143 29.2148 24.6729ZM16.0273 30.3604C15.3398 30.3604 14.7773 29.7979 14.7773 29.1104H17.2773C17.2773 29.7979 16.7148 30.3604 16.0273 30.3604ZM6.77734 3.67285C6.27734 3.23535 5.46484 3.23535 5.02734 3.79785C2.58984 6.48535 1.27734 9.98535 1.27734 13.6104C1.27734 13.9419 1.40904 14.2598 1.64346 14.4942C1.87788 14.7287 2.19582 14.8604 2.52734 14.8604C2.85886 14.8604 3.17681 14.7287 3.41123 14.4942C3.64565 14.2598 3.77734 13.9419 3.77734 13.6104C3.77734 10.6104 4.90234 7.67285 6.90234 5.42285C7.33984 4.92285 7.33984 4.11035 6.77734 3.67285ZM27.0273 3.79785C26.8009 3.59356 26.5075 3.47913 26.2025 3.4761C25.8975 3.47308 25.6019 3.58167 25.3714 3.78143C25.141 3.98119 24.9915 4.25833 24.9511 4.56066C24.9107 4.86298 24.9823 5.16963 25.1523 5.42285C27.1523 7.67285 28.2773 10.6104 28.2773 13.6104C28.2773 13.9419 28.409 14.2598 28.6435 14.4942C28.8779 14.7287 29.1958 14.8604 29.5273 14.8604C29.8589 14.8604 30.1768 14.7287 30.4112 14.4942C30.6456 14.2598 30.7773 13.9419 30.7773 13.6104C30.7773 9.98535 29.4648 6.48535 27.0273 3.79785Z" fill="#8B9FE8"/>
</g>
</g>
<defs>
<clipPath id="clip0_8004_9328">
<rect width="32" height="32" fill="white" transform="translate(0.0273438 0.860352)"/>
</clipPath>
<clipPath id="clip1_8004_9328">
<rect width="32" height="32" fill="white" transform="translate(0.0273438 0.860352)"/>
</clipPath>
</defs>
</svg>
