<svg width="57" height="20" viewBox="0 0 57 20" fill="none" xmlns="http://www.w3.org/2000/svg">
<path fill-rule="evenodd" clip-rule="evenodd" d="M50.9823 0.625279C49.6901 1.26999 49.2433 1.79977 47.9479 4.22388C44.3146 11.0233 40.0615 16.1959 36.3203 18.3656C35.5341 18.8215 34.9226 19.2264 34.9615 19.2651C35.1318 19.4356 38.3571 18.3782 40.0085 17.6106C42.6606 16.3783 44.5447 15.0344 46.8196 12.7531C48.9509 10.6159 51.0976 7.62069 52.4682 4.87221C53.271 3.26202 54.2693 0.781936 54.2693 0.397535C54.2693 0.0161137 51.8701 0.182345 50.9823 0.625279ZM44.9732 2.42426C43.8881 2.91827 42.9124 4.08638 40.725 7.51065C36.4964 14.1295 33.9705 17.2331 31.4274 18.9341L30.1112 19.8147L31.0924 19.6948C35.2216 19.1904 40.1839 15.2357 44.0963 9.33155C45.6015 7.06027 48.1472 2.51046 47.9969 2.36019C47.7285 2.09179 45.6043 2.13691 44.9732 2.42426ZM4.0941 4.22175L0 5.85917L5.58403 9.12786C15.7306 15.0673 20.8264 17.7424 23.0494 18.2967C25.711 18.9603 28.5078 16.6711 32.9972 10.1542C34.19 8.4227 34.1568 8.3216 32.3871 8.29265C29.8117 8.25072 28.4825 9.22385 26.5183 12.5894C24.1117 16.7135 22.835 17.4627 20.2583 16.2631C16.9251 14.7115 11.5854 9.00335 9.13346 4.37074L8.18799 2.58411L4.0941 4.22175ZM39.9021 4.43268C37.942 4.90988 36.7205 5.93516 34.8896 8.64001C31.1294 14.1949 28.5561 17.1901 26.5166 18.3852C25.6118 18.9156 25.5377 19.0112 25.8826 19.204C26.0971 19.3243 26.851 19.4292 27.5579 19.4373C30.0729 19.4665 32.9793 17.3659 35.9313 13.3861C36.8405 12.1601 40.6134 6.43535 41.7879 4.49972C41.9701 4.1994 41.0017 4.16492 39.9021 4.43268ZM53.0986 6.83316C52.1872 7.15371 51.9999 7.33888 50.8256 9.07933C50.2469 9.93667 49.2003 11.3044 48.4994 12.1186C47.7987 12.9327 47.2917 13.5989 47.3726 13.5989C47.9354 13.5989 50.8018 11.901 52.0344 10.8379C53.7601 9.34922 55.3324 8.4906 56.333 8.4906C57.1891 8.4906 57.2131 8.30946 56.4509 7.59856C55.3346 6.55731 54.4542 6.35639 53.0986 6.83316Z" fill="#1C1C1C"/>
</svg>
