<svg width="38" height="13" viewBox="0 0 38 13" fill="none" xmlns="http://www.w3.org/2000/svg">
<path fill-rule="evenodd" clip-rule="evenodd" d="M33.2132 0.392745C32.3714 0.812753 32.0803 1.15789 31.2364 2.73711C28.8695 7.16667 26.0987 10.5364 23.6615 11.95C23.1492 12.247 22.7509 12.5107 22.7762 12.536C22.8872 12.647 24.9883 11.9581 26.0642 11.4581C27.7919 10.6553 29.0194 9.77976 30.5014 8.29358C31.8898 6.90127 33.2884 4.95002 34.1812 3.15947C34.7042 2.11049 35.3546 0.494802 35.3546 0.244378C35.3546 -0.00410476 33.7916 0.104189 33.2132 0.392745ZM29.2985 1.56472C28.5916 1.88655 27.956 2.64753 26.5309 4.87833C23.7761 9.19031 22.1306 11.2121 20.4739 12.3203L19.6164 12.894L20.2556 12.8159C22.9457 12.4873 26.1785 9.91094 28.7272 6.06458C29.7078 4.58492 31.3662 1.62088 31.2683 1.52298C31.0935 1.34813 29.7096 1.37752 29.2985 1.56472ZM2.66717 2.73572L0 3.80245L3.6378 5.93188C10.248 9.80125 13.5677 11.544 15.0159 11.905C16.7498 12.3374 18.5719 10.8461 21.4965 6.60052C22.2736 5.4725 22.252 5.40663 21.0991 5.38778C19.4213 5.36046 18.5554 5.99442 17.2758 8.18695C15.7079 10.8737 14.8762 11.3618 13.1976 10.5803C11.0261 9.56941 7.54752 5.85077 5.95013 2.83279L5.3342 1.66885L2.66717 2.73572ZM25.9949 2.87314C24.7179 3.18402 23.9221 3.85195 22.7294 5.61407C20.2798 9.23288 18.6033 11.1841 17.2747 11.9627C16.6852 12.3083 16.637 12.3705 16.8616 12.4962C17.0014 12.5745 17.4925 12.6429 17.953 12.6481C19.5914 12.6671 21.4849 11.2987 23.408 8.70596C24.0003 7.90727 26.4583 4.17781 27.2234 2.91681C27.3421 2.72116 26.7112 2.6987 25.9949 2.87314ZM34.5919 4.43697C33.9982 4.6458 33.8762 4.76643 33.1112 5.90027C32.7341 6.4588 32.0523 7.34985 31.5957 7.88023C31.1392 8.41061 30.8089 8.84462 30.8616 8.84462C31.2283 8.84462 33.0956 7.73852 33.8986 7.0459C35.0229 6.0761 36.0472 5.51673 36.699 5.51673C37.2567 5.51673 37.2724 5.39873 36.7759 4.9356C36.0486 4.25726 35.4751 4.12637 34.5919 4.43697Z" fill="white"/>
</svg>
